<?xml version="1.0" encoding="utf-8"?>
<!-- Generator: Adobe Illustrator 23.0.2, SVG Export Plug-In . SVG Version: 6.00 Build 0)  -->
<svg version="1.1" id="Layer_1" xmlns="http://www.w3.org/2000/svg" xmlns:xlink="http://www.w3.org/1999/xlink" x="0px" y="0px"
	 viewBox="0 0 41 50" style="enable-background:new 0 0 41 50;" xml:space="preserve">
<style type="text/css">
	.st0{fill:#343434;}
	.st1{fill:#0084CE;}
</style>
<g>
	<g>
		<g>
			<path class="st0" d="M35.86,16.4h-4.84v-3.83c1.56-1.25,2.5-3.12,2.5-5.15c0-3.67-2.97-6.64-6.64-6.64
				c-2.34,0-4.45,1.25-5.62,3.12c-0.7-0.47-1.64-0.78-2.58-0.78c-0.78,0-1.48,0.15-2.19,0.54C15.08,1.4,12.5,0,9.69,0
				C5.54,0,2.11,3.04,1.56,7.03C0.62,7.73,0,8.9,0,10.15s0.54,2.26,1.4,2.97v32.19C1.4,47.89,3.51,50,6.09,50h20.15
				c2.58,0,4.69-2.11,4.69-4.69v-4.69h4.84c2.58,0,4.69-2.11,4.69-4.69V21.09C40.54,18.51,38.44,16.4,35.86,16.4z M10.86,35.15
				c0,0.86-0.7,1.56-1.56,1.56s-1.56-0.7-1.56-1.56V23.44c0-0.86,0.7-1.56,1.56-1.56s1.56,0.7,1.56,1.56
				C10.86,23.44,10.86,35.15,10.86,35.15z M17.89,35.15c0,0.86-0.7,1.56-1.56,1.56s-1.56-0.7-1.56-1.56V23.44
				c0-0.86,0.7-1.56,1.56-1.56c0.86,0,1.56,0.7,1.56,1.56V35.15z M24.92,35.15c0,0.86-0.7,1.56-1.56,1.56s-1.56-0.7-1.56-1.56V23.44
				c0-0.86,0.7-1.56,1.56-1.56s1.56,0.7,1.56,1.56V35.15z M27.5,10.86c-0.08,0-0.08,0-0.15,0c-0.08,0-0.15,0-0.15,0H11.72v4.69
				c0,1.25-1.01,2.34-2.34,2.34s-2.34-1.09-2.34-2.34v-4.69H6.95H3.98c-0.39,0-0.78-0.39-0.78-0.78s0.23-0.62,0.47-0.7
				c0.54-0.23,0.93-0.78,0.93-1.4c0.08-2.65,2.34-4.84,5.08-4.84c2.18,0,4.14,1.4,4.84,3.51c0.15,0.54,0.7,1.01,1.33,1.09
				c0.62,0.08,1.17-0.23,1.48-0.7c0.31-0.47,0.78-0.78,1.33-0.78c0.86,0,1.56,0.7,1.56,1.56s0.7,1.56,1.56,1.56
				c0.47,0,0.86-0.15,1.17-0.47c0.31-0.31,0.47-0.78,0.39-1.17c0-0.08,0-0.15,0-0.23c0-1.95,1.56-3.51,3.51-3.51S30.4,5.55,30.4,7.5
				C30.39,9.14,29.14,10.62,27.5,10.86z M37.42,35.94c0,0.86-0.7,1.56-1.56,1.56h-4.84V19.53h4.84c0.86,0,1.56,0.7,1.56,1.56V35.94z
				"/>
		</g>
	</g>
	<path class="st1" d="M27.5,10.86c-0.08,0-0.08,0-0.15,0c-0.08,0-0.15,0-0.15,0H11.72v4.69c0,1.25-1.01,2.34-2.34,2.34
		s-2.34-1.09-2.34-2.34v-4.69H6.95H3.98c-0.39,0-0.78-0.39-0.78-0.78s0.23-0.62,0.47-0.7c0.54-0.23,0.93-0.78,0.93-1.4
		c0.08-2.65,2.34-4.84,5.08-4.84c2.18,0,4.14,1.4,4.84,3.51c0.15,0.54,0.7,1.01,1.33,1.09c0.62,0.08,1.17-0.23,1.48-0.7
		c0.31-0.47,0.78-0.78,1.33-0.78c0.86,0,1.56,0.7,1.56,1.56s0.7,1.56,1.56,1.56c0.47,0,0.86-0.15,1.17-0.47
		c0.31-0.31,0.47-0.78,0.39-1.17c0-0.08,0-0.15,0-0.23c0-1.95,1.56-3.51,3.51-3.51S30.4,5.55,30.4,7.5
		C30.39,9.14,29.14,10.62,27.5,10.86z"/>
	<path class="st1" d="M10.86,35.15c0,0.86-0.7,1.56-1.56,1.56s-1.56-0.7-1.56-1.56V23.44c0-0.86,0.7-1.56,1.56-1.56
		s1.56,0.7,1.56,1.56C10.86,23.44,10.86,35.15,10.86,35.15z"/>
	<path class="st1" d="M17.89,35.15c0,0.86-0.7,1.56-1.56,1.56s-1.56-0.7-1.56-1.56V23.44c0-0.86,0.7-1.56,1.56-1.56
		c0.86,0,1.56,0.7,1.56,1.56V35.15z"/>
	<path class="st1" d="M24.92,35.15c0,0.86-0.7,1.56-1.56,1.56s-1.56-0.7-1.56-1.56V23.44c0-0.86,0.7-1.56,1.56-1.56
		s1.56,0.7,1.56,1.56V35.15z"/>
</g>
</svg>
