<?xml version="1.0" encoding="utf-8"?>
<!-- Generator: Adobe Illustrator 23.0.2, SVG Export Plug-In . SVG Version: 6.00 Build 0)  -->
<svg version="1.1" id="Layer_1" xmlns="http://www.w3.org/2000/svg" xmlns:xlink="http://www.w3.org/1999/xlink" x="0px" y="0px"
	 viewBox="0 0 81 100" style="enable-background:new 0 0 81 100;" xml:space="preserve">
<style type="text/css">
	.st0{fill:#FFFFFF;}
	.st1{fill:#0084CE;}
</style>
<path class="st0" d="M71.72,32.81h-9.69v-7.66c3.13-2.5,5-6.25,5-10.31c0-7.34-5.94-13.28-13.28-13.28c-4.69,0-8.91,2.5-11.25,6.25
	c-1.41-0.94-3.28-1.56-5.16-1.56c-1.56,0-2.97,0.31-4.38,1.09C30.16,2.81,25,0,19.38,0C11.09,0,4.22,6.09,3.13,14.06
	C1.25,15.47,0,17.81,0,20.31s1.09,4.53,2.81,5.94v64.38c0,5.16,4.22,9.38,9.38,9.38H52.5c5.16,0,9.38-4.22,9.38-9.38v-9.38h9.69
	c5.16,0,9.38-4.22,9.38-9.38V42.19C81.09,37.03,76.88,32.81,71.72,32.81z M21.72,70.31c0,1.72-1.41,3.13-3.13,3.13
	s-3.13-1.41-3.13-3.13V46.88c0-1.72,1.41-3.13,3.13-3.13s3.13,1.41,3.13,3.13C21.72,46.88,21.72,70.31,21.72,70.31z M35.78,70.31
	c0,1.72-1.41,3.13-3.13,3.13c-1.72,0-3.13-1.41-3.13-3.13V46.88c0-1.72,1.41-3.13,3.13-3.13s3.13,1.41,3.13,3.13V70.31z
	 M49.84,70.31c0,1.72-1.41,3.13-3.13,3.13s-3.13-1.41-3.13-3.13V46.88c0-1.72,1.41-3.13,3.13-3.13s3.13,1.41,3.13,3.13V70.31z
	 M55,21.72c-0.16,0-0.16,0-0.31,0c-0.16,0-0.31,0-0.31,0H23.44v9.38c0,2.5-2.03,4.69-4.69,4.69s-4.69-2.19-4.69-4.69v-9.38H13.9
	H7.97c-0.78,0-1.56-0.78-1.56-1.56s0.47-1.25,0.94-1.41c1.09-0.47,1.87-1.56,1.87-2.81c0.16-5.31,4.69-9.69,10.16-9.69
	c4.37,0,8.28,2.81,9.69,7.03c0.31,1.09,1.41,2.03,2.66,2.19c1.25,0.16,2.34-0.47,2.97-1.41c0.62-0.94,1.56-1.56,2.66-1.56
	c1.72,0,3.13,1.41,3.13,3.13s1.41,3.13,3.13,3.13c0.94,0,1.72-0.31,2.34-0.94c0.63-0.63,0.94-1.56,0.78-2.34c0-0.16,0-0.31,0-0.47
	c0-3.91,3.13-7.03,7.03-7.03s7.03,3.13,7.03,7.03C60.78,18.28,58.28,21.25,55,21.72z M74.84,71.88c0,1.72-1.41,3.13-3.13,3.13h-9.69
	V39.06h9.69c1.72,0,3.13,1.41,3.13,3.13V71.88z"/>
<path class="st1" d="M21.72,70.31c0,1.72-1.41,3.13-3.13,3.13s-3.13-1.41-3.13-3.13V46.88c0-1.72,1.41-3.13,3.13-3.13
	s3.13,1.41,3.13,3.13C21.72,46.88,21.72,70.31,21.72,70.31z"/>
<path class="st1" d="M35.78,70.31c0,1.72-1.41,3.13-3.13,3.13c-1.72,0-3.13-1.41-3.13-3.13V46.88c0-1.72,1.41-3.13,3.13-3.13
	s3.13,1.41,3.13,3.13V70.31z"/>
<path class="st1" d="M49.84,70.31c0,1.72-1.41,3.13-3.13,3.13s-3.13-1.41-3.13-3.13V46.88c0-1.72,1.41-3.13,3.13-3.13
	s3.13,1.41,3.13,3.13V70.31z"/>
<path class="st1" d="M55,21.72c-0.16,0-0.16,0-0.31,0c-0.16,0-0.31,0-0.31,0H23.44v9.38c0,2.5-2.03,4.69-4.69,4.69
	s-4.69-2.19-4.69-4.69v-9.38H13.9H7.97c-0.78,0-1.56-0.78-1.56-1.56s0.47-1.25,0.94-1.41c1.09-0.47,1.87-1.56,1.87-2.81
	c0.16-5.31,4.69-9.69,10.16-9.69c4.37,0,8.28,2.81,9.69,7.03c0.31,1.09,1.41,2.03,2.66,2.19c1.25,0.16,2.34-0.47,2.97-1.41
	c0.62-0.94,1.56-1.56,2.66-1.56c1.72,0,3.13,1.41,3.13,3.13s1.41,3.13,3.13,3.13c0.94,0,1.72-0.31,2.34-0.94
	c0.63-0.63,0.94-1.56,0.78-2.34c0-0.16,0-0.31,0-0.47c0-3.91,3.13-7.03,7.03-7.03s7.03,3.13,7.03,7.03
	C60.78,18.28,58.28,21.25,55,21.72z"/>
</svg>
