<?xml version="1.0" encoding="utf-8"?>
<!-- Generator: Adobe Illustrator 23.0.2, SVG Export Plug-In . SVG Version: 6.00 Build 0)  -->
<svg version="1.1" id="Layer_1" xmlns="http://www.w3.org/2000/svg" xmlns:xlink="http://www.w3.org/1999/xlink" x="0px" y="0px"
	 viewBox="0 0 210 134" style="enable-background:new 0 0 210 134;" xml:space="preserve">
<style type="text/css">
	.st0{fill:#FFFFFF;}
	.st1{fill:#0084CE;}
</style>
<g>
	<g>
		<g>
			<g>
				<path class="st0" d="M139.46,31.6h-9.33v-7.38c3.01-2.41,4.82-6.02,4.82-9.93c0-7.07-5.72-12.79-12.79-12.79
					c-4.52,0-8.58,2.41-10.84,6.02c-1.36-0.91-3.16-1.5-4.97-1.5c-1.5,0-2.86,0.3-4.22,1.05C99.43,2.71,94.46,0,89.04,0
					c-7.99,0-14.6,5.87-15.65,13.54c-1.81,1.36-3.01,3.61-3.01,6.02s1.05,4.36,2.71,5.72V87.3c0,4.97,4.06,9.03,9.03,9.03h38.83
					c4.97,0,9.03-4.06,9.03-9.03v-9.03h9.33c4.97,0,9.03-4.06,9.03-9.03V40.64C148.48,35.67,144.43,31.6,139.46,31.6z M91.3,67.72
					c0,1.66-1.36,3.01-3.01,3.01s-3.01-1.36-3.01-3.01V45.16c0-1.66,1.36-3.01,3.01-3.01s3.01,1.36,3.01,3.01
					C91.3,45.16,91.3,67.72,91.3,67.72z M104.84,67.72c0,1.66-1.36,3.01-3.01,3.01s-3.01-1.36-3.01-3.01V45.16
					c0-1.66,1.36-3.01,3.01-3.01s3.01,1.36,3.01,3.01V67.72z M118.38,67.72c0,1.66-1.36,3.01-3.01,3.01c-1.66,0-3.01-1.36-3.01-3.01
					V45.16c0-1.66,1.36-3.01,3.01-3.01c1.66,0,3.01,1.36,3.01,3.01V67.72z M123.35,20.92c-0.15,0-0.15,0-0.3,0c-0.15,0-0.3,0-0.3,0
					h-29.8v9.03c0,2.41-1.96,4.52-4.52,4.52s-4.52-2.11-4.52-4.52v-9.03h-0.15h-5.71c-0.75,0-1.5-0.75-1.5-1.5
					c0-0.75,0.45-1.2,0.91-1.36c1.05-0.45,1.8-1.5,1.8-2.71c0.15-5.11,4.52-9.33,9.79-9.33c4.21,0,7.98,2.71,9.33,6.77
					c0.3,1.05,1.36,1.96,2.56,2.11c1.2,0.15,2.25-0.45,2.86-1.36c0.6-0.91,1.5-1.5,2.56-1.5c1.66,0,3.01,1.36,3.01,3.01
					c0,1.66,1.36,3.01,3.01,3.01c0.91,0,1.66-0.3,2.25-0.91c0.61-0.61,0.91-1.5,0.75-2.25c0-0.15,0-0.3,0-0.45
					c0-3.77,3.01-6.77,6.77-6.77c3.76,0,6.77,3.01,6.77,6.77C128.92,17.61,126.51,20.47,123.35,20.92z M142.46,69.24
					c0,1.66-1.36,3.01-3.01,3.01h-9.33V37.62h9.33c1.66,0,3.01,1.36,3.01,3.01V69.24z"/>
			</g>
		</g>
		<path class="st1" d="M123.35,20.92c-0.15,0-0.15,0-0.3,0c-0.15,0-0.3,0-0.3,0h-29.8v9.03c0,2.41-1.96,4.52-4.52,4.52
			s-4.52-2.11-4.52-4.52v-9.03h-0.15h-5.71c-0.75,0-1.5-0.75-1.5-1.5c0-0.75,0.45-1.2,0.91-1.36c1.05-0.45,1.8-1.5,1.8-2.71
			c0.15-5.11,4.52-9.33,9.79-9.33c4.21,0,7.98,2.71,9.33,6.77c0.3,1.05,1.36,1.96,2.56,2.11c1.2,0.15,2.25-0.45,2.86-1.36
			c0.6-0.91,1.5-1.5,2.56-1.5c1.66,0,3.01,1.36,3.01,3.01c0,1.66,1.36,3.01,3.01,3.01c0.91,0,1.66-0.3,2.25-0.91
			c0.61-0.61,0.91-1.5,0.75-2.25c0-0.15,0-0.3,0-0.45c0-3.77,3.01-6.77,6.77-6.77c3.76,0,6.77,3.01,6.77,6.77
			C128.92,17.61,126.51,20.47,123.35,20.92z"/>
		<path class="st1" d="M91.3,67.72c0,1.66-1.36,3.01-3.01,3.01s-3.01-1.36-3.01-3.01V45.16c0-1.66,1.36-3.01,3.01-3.01
			s3.01,1.36,3.01,3.01C91.3,45.16,91.3,67.72,91.3,67.72z"/>
		<path class="st1" d="M104.84,67.72c0,1.66-1.36,3.01-3.01,3.01s-3.01-1.36-3.01-3.01V45.16c0-1.66,1.36-3.01,3.01-3.01
			s3.01,1.36,3.01,3.01V67.72z"/>
		<path class="st1" d="M118.38,67.72c0,1.66-1.36,3.01-3.01,3.01c-1.66,0-3.01-1.36-3.01-3.01V45.16c0-1.66,1.36-3.01,3.01-3.01
			c1.66,0,3.01,1.36,3.01,3.01V67.72z"/>
	</g>
	<g>
		<g>
			<path class="st0" d="M160.77,109.96v22.96h-5.31v-9.41h-10.43v9.41h-5.31v-22.96h5.31v9.05h10.43v-9.05H160.77z"/>
			<path class="st0" d="M167.22,130.59c-1.83-1.81-2.74-4.41-2.74-7.77v-12.86h5.31v12.66c0,4.11,1.71,6.17,5.12,6.17
				c1.66,0,2.93-0.5,3.8-1.49c0.88-1,1.31-2.55,1.31-4.67v-12.66h5.25v12.86c0,3.37-0.91,5.96-2.74,7.77
				c-1.83,1.81-4.38,2.72-7.66,2.72C171.6,133.31,169.04,132.41,167.22,130.59z"/>
			<path class="st0" d="M208.92,123.07c0.74,0.97,1.12,2.17,1.12,3.59c0,2.01-0.78,3.56-2.34,4.64c-1.56,1.08-3.84,1.62-6.84,1.62
				h-11.87v-22.96h11.22c2.8,0,4.95,0.54,6.44,1.61c1.5,1.07,2.25,2.53,2.25,4.36c0,1.12-0.27,2.11-0.8,2.98
				c-0.54,0.87-1.29,1.56-2.25,2.07C207.14,121.4,208.17,122.09,208.92,123.07z M194.26,113.96v5.41h5.28
				c1.31,0,2.31-0.23,2.98-0.69c0.68-0.46,1.02-1.14,1.02-2.03s-0.34-1.57-1.02-2.02c-0.68-0.45-1.67-0.67-2.98-0.67H194.26z
				 M203.62,128.23c0.71-0.46,1.07-1.17,1.07-2.13c0-1.9-1.41-2.85-4.23-2.85h-6.2v5.67h6.2
				C201.85,128.92,202.91,128.69,203.62,128.23z"/>
		</g>
		<g>
			<g>
				<path class="st1" d="M68.33,128.9c-1.21-0.66-2.17-1.57-2.86-2.74s-1.03-2.48-1.03-3.94c0-1.46,0.35-2.78,1.04-3.94
					c0.7-1.17,1.65-2.08,2.87-2.74c1.21-0.66,2.58-0.99,4.08-0.99c1.22,0,2.34,0.21,3.35,0.64c1.01,0.43,1.86,1.04,2.56,1.86
					l-1.79,1.68c-1.08-1.17-2.41-1.75-3.99-1.75c-1.02,0-1.94,0.22-2.75,0.67c-0.81,0.45-1.44,1.07-1.9,1.87
					c-0.46,0.79-0.68,1.7-0.68,2.71c0,1.01,0.23,1.91,0.68,2.71c0.45,0.8,1.09,1.42,1.9,1.87s1.73,0.67,2.75,0.67
					c1.58,0,2.91-0.59,3.99-1.77l1.79,1.71c-0.7,0.81-1.55,1.43-2.57,1.85c-1.02,0.43-2.14,0.64-3.36,0.64
					C70.91,129.89,69.55,129.56,68.33,128.9z"/>
				<path class="st1" d="M89.7,129.68l-3.05-4.37c-0.13,0.02-0.32,0.02-0.58,0.02h-3.37v4.35h-2.77v-14.92h6.14
					c1.29,0,2.42,0.21,3.38,0.64c0.96,0.43,1.7,1.04,2.21,1.83s0.77,1.74,0.77,2.83c0,1.12-0.27,2.09-0.82,2.9
					c-0.55,0.81-1.33,1.41-2.36,1.81l3.43,4.9H89.7z M88.7,117.87c-0.63-0.51-1.54-0.77-2.75-0.77h-3.24v5.95h3.24
					c1.21,0,2.12-0.26,2.75-0.78c0.63-0.52,0.94-1.25,0.94-2.21S89.33,118.38,88.7,117.87z"/>
				<path class="st1" d="M104.14,126.23h-7.46l-1.47,3.45h-2.86l6.71-14.92h2.73l6.74,14.92h-2.9L104.14,126.23z M103.22,124.05
					l-2.81-6.52l-2.79,6.52H103.22z"/>
				<path class="st1" d="M130.38,114.76l-4.95,14.92h-2.94l-3.69-11.04l-3.75,11.04h-2.96l-4.95-14.92h2.88l3.71,11.34l3.86-11.34
					h2.56l3.77,11.4l3.82-11.4H130.38z"/>
				<path class="st1" d="M131.57,114.76h2.77v12.58h7.8v2.35h-10.57V114.76z"/>
			</g>
		</g>
		<g>
			<g>
				<path class="st0" d="M15.23,110.98c1.5,0.68,2.65,1.64,3.46,2.89c0.81,1.25,1.21,2.72,1.21,4.43c0,1.68-0.4,3.15-1.21,4.41
					c-0.81,1.26-1.96,2.22-3.46,2.89s-3.26,1-5.3,1H5.31v6.33H0v-22.96h9.94C11.97,109.96,13.74,110.3,15.23,110.98z M13.28,121.23
					c0.83-0.69,1.25-1.67,1.25-2.93c0-1.29-0.42-2.28-1.25-2.97c-0.83-0.69-2.04-1.03-3.64-1.03H5.31v7.97h4.33
					C11.24,122.26,12.45,121.92,13.28,121.23z"/>
				<path class="st0" d="M24.58,130.59c-1.83-1.81-2.74-4.41-2.74-7.77v-12.86h5.31v12.66c0,4.11,1.71,6.17,5.12,6.17
					c1.66,0,2.93-0.5,3.8-1.49c0.87-1,1.31-2.55,1.31-4.67v-12.66h5.25v12.86c0,3.37-0.91,5.96-2.74,7.77s-4.38,2.72-7.66,2.72
					C28.96,133.31,26.41,132.41,24.58,130.59z"/>
				<path class="st0" d="M66.28,123.07c0.74,0.97,1.12,2.17,1.12,3.59c0,2.01-0.78,3.56-2.34,4.64c-1.56,1.08-3.84,1.62-6.84,1.62
					H46.34v-22.96h11.22c2.8,0,4.95,0.54,6.44,1.61c1.5,1.07,2.25,2.53,2.25,4.36c0,1.12-0.27,2.11-0.8,2.98
					c-0.54,0.87-1.28,1.56-2.25,2.07C64.51,121.4,65.54,122.09,66.28,123.07z M51.62,113.96v5.41h5.28c1.31,0,2.31-0.23,2.98-0.69
					s1.02-1.14,1.02-2.03s-0.34-1.57-1.02-2.02c-0.68-0.45-1.67-0.67-2.98-0.67H51.62z M60.98,128.23c0.71-0.46,1.07-1.17,1.07-2.13
					c0-1.9-1.41-2.85-4.23-2.85h-6.2v5.67h6.2C59.22,128.92,60.27,128.69,60.98,128.23z"/>
			</g>
		</g>
	</g>
</g>
</svg>
